HIERARCHY
ROOT Hips
{
    OFFSET 0.000000 0.000000 0.000000
    CHANNELS 6 Xposition Yposition Zposition Zrotation Xrotation Yrotation
    JOINT Chest
    {
        OFFSET -0.000000 0.078598 0.000000
        CHANNELS 3 Zrotation Xrotation Yrotation
        JOINT Chest2
        {
            OFFSET -0.000000 0.230468 0.000000
            CHANNELS 3 Zrotation Xrotation Yrotation
            JOINT Neck
            {
                OFFSET -0.000000 0.249638 0.000000
                CHANNELS 3 Zrotation Xrotation Yrotation
                JOINT Head
                {
                    OFFSET -0.000000 0.103998 0.019170
                    CHANNELS 3 Zrotation Xrotation Yrotation
                    End Site
                    {
                        OFFSET -0.000000 0.191701 0.000000
                    }
                }
            }
            JOINT LeftCollar
            {
                OFFSET 0.038274 0.205938 -0.001496
                CHANNELS 3 Zrotation Xrotation Yrotation
                JOINT LeftShoulder
                {
                    OFFSET 0.132388 0.000000 0.000000
                    CHANNELS 3 Zrotation Xrotation Yrotation
                    JOINT LeftElbow
                    {
                        OFFSET 0.250301 0.000000 0.000000
                        CHANNELS 3 Zrotation Xrotation Yrotation
                        JOINT LeftWrist
                        {
                            OFFSET 0.285291 0.000000 0.000000
                            CHANNELS 3 Zrotation Xrotation Yrotation
                            End Site
                            {
                                OFFSET 0.000000 -0.143776 0.000000
                            }
                        }
                    }
                }
            }
            JOINT RightCollar
            {
                OFFSET -0.038406 0.205938 -0.001496
                CHANNELS 3 Zrotation Xrotation Yrotation
                JOINT RightShoulder
                {
                    OFFSET -0.132388 0.000000 0.000000
                    CHANNELS 3 Zrotation Xrotation Yrotation
                    JOINT RightElbow
                    {
                        OFFSET -0.250301 0.000000 0.000000
                        CHANNELS 3 Zrotation Xrotation Yrotation
                        JOINT RightWrist
                        {
                            OFFSET -0.285291 0.000000 0.000000
                            CHANNELS 3 Zrotation Xrotation Yrotation
                            End Site
                            {
                                OFFSET -0.000000 -0.143776 0.000000
                            }
                        }
                    }
                }
            }
        }
    }
    JOINT LeftHip
    {
        OFFSET 0.095851 0.000000 0.000000
        CHANNELS 3 Zrotation Xrotation Yrotation
        JOINT LeftKnee
        {
            OFFSET -0.000000 -0.406444 0.000000
            CHANNELS 3 Zrotation Xrotation Yrotation
            JOINT LeftAnkle
            {
                OFFSET -0.000000 -0.408443 0.000000
                CHANNELS 3 Zrotation Xrotation Yrotation
                JOINT LeftToe
                {
                    OFFSET -0.000000 -0.062303 0.143776
                    CHANNELS 3 Zrotation Xrotation Yrotation
                    End Site
                    {
                        OFFSET -0.000000 0.000000 0.038340
                    }
                }
            }
        }
    }
    JOINT RightHip
    {
        OFFSET -0.095851 0.000000 0.000000
        CHANNELS 3 Zrotation Xrotation Yrotation
        JOINT RightKnee
        {
            OFFSET -0.000000 -0.406444 0.000000
            CHANNELS 3 Zrotation Xrotation Yrotation
            JOINT RightAnkle
            {
                OFFSET -0.000000 -0.408443 0.000000
                CHANNELS 3 Zrotation Xrotation Yrotation
                JOINT RightToe
                {
                    OFFSET -0.000000 -0.062303 0.143776
                    CHANNELS 3 Zrotation Xrotation Yrotation
                    End Site
                    {
                        OFFSET -0.000000 0.000000 0.038340
                    }
                }
            }
        }
    }
}
MOTION
Frames:    6
Frame Time:    0.016667
0.205223    0.802159    -0.345678    20.081484    -10.296339    -104.952660    6.495351    24.759375    -2.256870    -6.002424    7.361406    0.129450    -7.895204    24.038099    -19.477867    -5.838591    -17.101601    -23.026569    6.500944    -4.168783    -28.980259    -21.587008    58.196865    -53.823364    -0.955295    -6.325024    -17.990566    124.994629    -24.786140    14.400759    -6.314140    -15.634351    33.166599    29.603102    47.123753    52.126408    10.123853    -13.497494    97.346344    -66.653282    -3.296950    -23.750917    23.522129    -17.829044    8.033731    2.517838    -5.270769    16.013603    -26.801155    10.256992    16.283543    0.000000    0.000000    0.000000    -17.788820    -52.347500    -12.288795    30.137934    42.900902    -21.837152    -12.665433    -22.570902    -13.970334    0.000000    0.000000    0.000000    
0.203798    0.802258    -0.345646    19.733656    -10.317037    -104.838646    6.406310    24.453535    -2.101479    -5.711319    7.474622    0.155300    -8.025681    23.731411    -19.474480    -5.865471    -16.878099    -23.035254    6.318984    -3.966320    -28.943968    -21.111624    58.049179    -54.200268    0.092709    -4.522513    -17.917877    121.531929    -25.044100    11.684196    -6.596126    -16.129515    32.988415    29.958563    47.780945    52.141506    9.719638    -14.013339    97.121674    -66.884834    -3.452502    -23.743563    23.314775    -17.688780    7.921872    2.433172    -4.977117    15.731484    -26.583601    10.102281    16.056082    0.000000    0.000000    0.000000    -17.907879    -51.981087    -12.153105    30.172457    43.023502    -21.898409    -12.689500    -22.767878    -14.149467    0.000000    0.000000    0.000000    
0.202422    0.802256    -0.345695    19.415703    -10.296748    -104.745163    6.472555    24.137024    -1.985489    -5.775796    7.440996    0.195139    -7.945409    23.500853    -19.460966    -5.756665    -16.628885    -22.960985    6.550172    -4.425617    -28.916876    -21.417063    58.543709    -54.474941    0.007198    -4.644316    -17.781088    121.923187    -25.252285    11.975241    -6.450469    -15.727397    32.953121    29.627935    47.555180    52.142258    9.593678    -14.158750    97.427727    -67.047165    -3.427293    -23.812241    23.113354    -17.529119    7.938833    2.467333    -4.740385    15.668712    -26.436565    10.066144    15.654531    0.000000    0.000000    0.000000    -17.910225    -51.629124    -12.009631    30.125963    43.116325    -21.764212    -12.778054    -22.914766    -14.455604    0.000000    0.000000    0.000000    
0.200850    0.802215    -0.345790    19.055864    -10.289242    -104.739182    6.390828    23.864107    -1.800122    -5.698578    7.274750    0.232072    -7.679193    23.606224    -19.484713    -5.967465    -16.829262    -22.918585    6.519812    -4.017275    -28.763081    -21.013149    58.359173    -54.823837    0.089641    -4.170805    -17.982855    121.651672    -25.126312    11.385873    -6.400081    -15.646139    32.927052    30.007294    47.235176    51.711613    9.646564    -13.609947    97.564148    -67.422142    -2.675120    -23.539013    23.056719    -17.293852    7.949912    2.241538    -4.410303    15.339218    -26.317688    9.719647    15.556439    0.000000    0.000000    0.000000    -17.879189    -51.302982    -11.581461    30.326458    43.225216    -22.037493    -12.905366    -22.941872    -14.607840    0.000000    0.000000    0.000000    
0.198815    0.802122    -0.345333    18.598112    -10.342649    -104.610847    6.424914    23.555660    -1.830899    -5.730960    7.271658    0.220437    -7.984692    23.290173    -19.289469    -5.545477    -16.481380    -22.768457    6.602179    -4.020475    -28.545273    -22.175508    58.071331    -53.743492    -0.000757    -4.063909    -18.787954    121.201225    -25.260706    11.224594    -6.454372    -15.655323    32.913338    30.388680    47.123398    51.323452    9.458653    -13.541385    97.603653    -67.646461    -2.833326    -23.256519    22.698956    -16.951916    7.681857    2.208183    -4.254809    15.152788    -26.234098    9.368853    15.487659    0.000000    0.000000    0.000000    -18.217684    -50.865219    -11.783216    30.398787    43.583256    -22.092325    -12.806118    -23.239889    -14.723940    0.000000    0.000000    0.000000    
0.196781    0.801882    -0.345143    18.144714    -10.344436    -104.522766    6.377956    23.156368    -1.706646    -5.699557    7.405515    0.254492    -7.823504    22.986488    -19.332199    -5.470631    -16.396994    -22.730833    6.740631    -4.549728    -28.382177    -23.042765    58.274193    -53.399467    -0.127034    -3.304616    -18.928980    120.334183    -25.146240    10.245651    -6.564758    -15.883275    32.765579    31.121988    47.146332    50.484329    8.782097    -13.457997    97.926582    -68.153168    -2.414231    -22.605202    22.448338    -16.583735    7.441978    2.164528    -4.077643    15.093628    -26.211252    9.040252    15.286927    0.000000    0.000000    0.000000    -18.463186    -50.357601    -11.881829    30.567152    43.789936    -22.037352    -12.879982    -23.559076    -15.064715    0.000000    0.000000    0.000000    
